<svg width="13" height="12" viewBox="0 0 13 12" fill="none" xmlns="http://www.w3.org/2000/svg">
<path d="M5.21048 0.647125C5.62221 -0.215708 6.85039 -0.215708 7.26211 0.647125L8.27475 2.76926C8.44044 3.1165 8.77056 3.35635 9.15202 3.40663L11.4832 3.71393C12.431 3.83887 12.8106 5.00695 12.1172 5.66515L10.4118 7.28399C10.1328 7.54888 10.0067 7.93697 10.0768 8.31529L10.5049 10.6273C10.679 11.5674 9.68533 12.2893 8.84508 11.8333L6.77848 10.7116C6.44032 10.5281 6.03227 10.5281 5.69411 10.7116L3.62752 11.8333C2.78727 12.2893 1.79364 11.5674 1.96771 10.6273L2.39584 8.31529C2.46589 7.93697 2.3398 7.54888 2.06075 7.28399L0.355399 5.66515C-0.337974 5.00695 0.0415561 3.83887 0.989389 3.71393L3.32058 3.40663C3.70203 3.35635 4.03215 3.1165 4.19785 2.76926L5.21048 0.647125Z" fill="#FFDF20"/>
<path d="M5.21091 0.646674C5.62277 -0.215558 6.84983 -0.215558 7.26169 0.646674L8.27439 2.76874C8.44008 3.11599 8.77086 3.35616 9.15232 3.40644L11.4834 3.71406C12.4311 3.83913 12.8105 5.00707 12.1172 5.66523L10.4121 7.28437L10.3144 7.38886C10.1044 7.64576 10.0158 7.98463 10.0771 8.31562L10.5049 10.6271C10.668 11.5085 9.80477 12.1986 9.00388 11.9055L8.8447 11.8332L6.77829 10.7111C6.4403 10.5278 6.0323 10.5278 5.69431 10.7111L3.6279 11.8332L3.46872 11.9055C2.7213 12.179 1.91929 11.5963 1.94821 10.801L1.96774 10.6271L2.39548 8.31562C2.45677 7.98463 2.36824 7.64576 2.15817 7.38886L2.06052 7.28437L0.35544 5.66523C-0.29456 5.0482 -0.00170726 3.98298 0.81833 3.74921L0.989229 3.71406L3.32028 3.40644C3.65412 3.36243 3.9485 3.17306 4.1279 2.89374L4.19821 2.76874L5.21091 0.646674ZM6.2363 1.00019C6.20529 1.00019 6.17963 1.00824 6.16208 1.01874C6.14835 1.02699 6.13038 1.0416 6.11325 1.07734L5.10056 3.19941C4.78908 3.85216 4.1682 4.30313 3.45114 4.39765L1.12009 4.70527C1.08052 4.71048 1.06093 4.72304 1.0488 4.73359C1.03343 4.74697 1.01738 4.7687 1.00778 4.79804C0.998176 4.82761 0.998294 4.85524 1.0029 4.87519C1.00653 4.89083 1.01508 4.91225 1.04392 4.93964L2.74899 6.55878C3.27355 7.05673 3.51057 7.78609 3.37888 8.49726L2.95114 10.8098C2.94399 10.8487 2.94977 10.8712 2.95603 10.8859C2.96403 10.9047 2.97991 10.9263 3.00485 10.9445C3.02993 10.9627 3.05578 10.971 3.07614 10.9728C3.09214 10.9742 3.11536 10.9733 3.15036 10.9543L5.21677 9.83222C5.85244 9.48721 6.62016 9.48721 7.25583 9.83222L9.32224 10.9543C9.35724 10.9733 9.38046 10.9742 9.39646 10.9728C9.41682 10.971 9.44267 10.9627 9.46774 10.9445C9.49269 10.9263 9.50857 10.9047 9.51657 10.8859C9.52283 10.8712 9.52861 10.8487 9.52146 10.8098L9.09372 8.49726C8.96203 7.78609 9.19905 7.05673 9.7236 6.55878L11.4287 4.93964C11.4575 4.91225 11.4661 4.89083 11.4697 4.87519C11.4743 4.85524 11.4744 4.82761 11.4648 4.79804C11.4552 4.7687 11.4392 4.74697 11.4238 4.73359C11.4117 4.72304 11.3921 4.71048 11.3525 4.70527L9.02146 4.39765C8.3044 4.30313 7.68352 3.85216 7.37204 3.19941L6.35935 1.07734C6.34221 1.0416 6.32425 1.02699 6.31052 1.01874C6.29297 1.00824 6.26731 1.00019 6.2363 1.00019Z" fill="#020618"/>
</svg>
