<svg width="13" height="12" viewBox="0 0 13 12" fill="none" xmlns="http://www.w3.org/2000/svg">
<path d="M5.66208 0.862549C5.89269 0.3793 6.57991 0.379301 6.81052 0.862549L7.82321 2.98462C8.0618 3.48462 8.53763 3.83019 9.08688 3.90259L11.4179 4.20923C11.9486 4.2792 12.1611 4.93327 11.7734 5.302L10.0674 6.92114C9.66559 7.30256 9.48406 7.86177 9.58493 8.40649L10.0136 10.718C10.1111 11.2444 9.55452 11.6489 9.08395 11.3938L7.01657 10.2717C6.52992 10.0078 5.94268 10.0078 5.45603 10.2717L3.38864 11.3938C2.91808 11.6489 2.36148 11.2444 2.45895 10.718L2.88767 8.40649C2.98853 7.86177 2.80701 7.30256 2.40524 6.92114L0.699189 5.302C0.311478 4.93327 0.524011 4.2792 1.05466 4.20923L3.38571 3.90259C3.93497 3.83019 4.4108 3.48462 4.64938 2.98462L5.66208 0.862549Z" fill="#0F172B" stroke="#020618"/>
</svg>
