<svg width="213" height="148" viewBox="0 0 213 148" fill="none" xmlns="http://www.w3.org/2000/svg">
<path d="M161 48L209 36V119L161 131V48Z" fill="#F3C133"/>
<path d="M204 115.096L166 124.596V51.9033L204 42.4033V115.096Z" stroke="white" stroke-opacity="0.5" stroke-width="10"/>
<path d="M113 60L161 48V131L113 143V60Z" fill="#F3C133"/>
<path d="M156 127.096L118 136.596V63.9033L156 54.4033V127.096Z" stroke="white" stroke-opacity="0.5" stroke-width="10"/>
<path d="M84 44L54 28V111L84 127V44Z" fill="#F3C133"/>
<path d="M59 107.999L79 118.666V47L59 36.333V107.999Z" stroke="white" stroke-opacity="0.5" stroke-width="10"/>
<path d="M113 60L84 44V127L113 143V60Z" fill="#F3C133"/>
<path d="M89 124.048L108 134.53V62.9512L89 52.4688V124.048Z" stroke="white" stroke-opacity="0.5" stroke-width="10"/>
<path d="M54 28L150 4L209 36L113 60L54 28Z" fill="#F3C133"/>
<path d="M195.316 34.2666L113.674 54.6768L67.6826 29.7324L149.325 9.32227L195.316 34.2666Z" stroke="white" stroke-opacity="0.5" stroke-width="10"/>
<path d="M208 36L148 5L54 28.5M208 36V119L114 143V59M208 36L114 59M114 59L54 28.5M54 28.5V111L111 143L111.5 60.5L54 28.5Z" stroke="black" stroke-width="10" stroke-linejoin="round"/>
<path d="M156.5 50L104.752 16.6298C104.047 16.175 104.182 15.1061 104.978 14.8407L113.06 12.1468C113.339 12.0537 113.645 12.0884 113.896 12.2416L166 44L166.5 68.5L161.5 63.5L156.5 72.5V50Z" fill="#F3C133"/>
<path d="M156.5 50L104.752 16.6298C104.047 16.175 104.182 15.1061 104.978 14.8407L113.06 12.1468C113.339 12.0537 113.645 12.0884 113.896 12.2416L166 44L166.5 68.5L161.5 63.5L156.5 72.5V50Z" fill="white" fill-opacity="0.5"/>
<path d="M156.5 50L104.752 16.6298C104.047 16.175 104.182 15.1061 104.978 14.8407L113.06 12.1468C113.339 12.0537 113.645 12.0884 113.896 12.2416L166 44L166.5 68.5L161.5 63.5L156.5 72.5V50Z" stroke="black" stroke-width="10"/>
<path d="M12.7228 38.7228C23.0198 28.4257 39.7146 28.4257 50.0116 38.7228L53.7405 42.4517L57.4694 38.7228C67.7664 28.4257 84.4612 28.4257 94.7582 38.7228C105.055 49.0198 105.055 65.7146 94.7582 76.0116L53.7405 117.029L12.7228 76.0116C2.42574 65.7146 2.42574 49.0198 12.7228 38.7228Z" fill="#C70000" stroke="black" stroke-width="10"/>
</svg>
