<svg width="97" height="66" viewBox="0 0 97 66" fill="none" xmlns="http://www.w3.org/2000/svg">
<g clip-path="url(#clip0_48_29)">
<rect x="-0.5" y="12.5" width="98" height="29" fill="#CC2222" fill-opacity="0.5" stroke="#CC2222"/>
<path d="M4 12H7L-13 42H-16L4 12Z" fill="#CC2222"/>
<path d="M12 12H15L-5 42H-8L12 12Z" fill="#CC2222"/>
<path d="M20 12H23L3 42H0L20 12Z" fill="#CC2222"/>
<path d="M28 12H31L11 42H8L28 12Z" fill="#CC2222"/>
<path d="M36 12H39L19 42H16L36 12Z" fill="#CC2222"/>
<path d="M44 12H47L27 42H24L44 12Z" fill="#CC2222"/>
<path d="M52 12H55L35 42H32L52 12Z" fill="#CC2222"/>
<path d="M60 12H63L43 42H40L60 12Z" fill="#CC2222"/>
<path d="M68 12H71L51 42H48L68 12Z" fill="#CC2222"/>
<path d="M76 12H79L59 42H56L76 12Z" fill="#CC2222"/>
<path d="M84 12H87L67 42H64L84 12Z" fill="#CC2222"/>
<path d="M92 12H95L75 42H72L92 12Z" fill="#CC2222"/>
<path d="M100 12H103L83 42H80L100 12Z" fill="#CC2222"/>
<path d="M108 12H111L91 42H88L108 12Z" fill="#CC2222"/>
<path d="M39 19L49 1L59 19H39Z" fill="black" fill-opacity="0.5" stroke="#CC2222" stroke-width="0.5"/>
<path d="M49.8916 7L49.6946 12.8653H48.266L48.069 7H49.8916ZM49.0049 16C48.7094 16 48.4663 15.8939 48.2759 15.6816C48.092 15.4612 48 15.1918 48 14.8735C48 14.5469 48.092 14.2735 48.2759 14.0531C48.4663 13.8327 48.7094 13.7224 49.0049 13.7224C49.2939 13.7224 49.5304 13.8327 49.7143 14.0531C49.9048 14.2735 50 14.5469 50 14.8735C50 15.1918 49.9048 15.4612 49.7143 15.6816C49.5304 15.8939 49.2939 16 49.0049 16Z" fill="#CC2222"/>
</g>
<defs>
<clipPath id="clip0_48_29">
<rect width="97" height="66" fill="white"/>
</clipPath>
</defs>
</svg>
