<svg width="445" height="166" viewBox="0 0 445 166" fill="none" xmlns="http://www.w3.org/2000/svg">
<path d="M234.956 81.9835L235.618 83.3693L237.139 83.5695L266.263 87.4073L244.958 107.633L243.845 108.691L244.124 110.199L249.472 139.084L223.655 125.072L222.305 124.34L220.955 125.072L195.137 139.084L200.486 110.199L200.765 108.691L199.652 107.633L178.346 87.4073L207.471 83.5695L208.993 83.3693L209.654 81.9835L222.305 55.4698L234.956 81.9835Z" stroke="#45556C" stroke-width="5.65659"/>
<path d="M343.763 95.0374L344.173 96.5169L345.637 96.9782L373.652 105.815L349.159 122.034L347.879 122.882L347.892 124.417L348.142 153.791L325.15 135.509L323.948 134.553L322.492 135.04L294.633 144.356L304.916 116.839L305.453 115.401L304.54 114.167L287.071 90.5485L316.42 91.8265L317.953 91.8935L318.844 90.6436L335.908 66.7296L343.763 95.0374Z" stroke="#45556C" stroke-width="5.65659"/>
<path d="M96.656 53.4631L143.683 51.4176L163.338 87.4667L142.344 115.849L154.702 148.919L121.221 137.723L93.5884 159.695L50.683 147.722L51.0857 100.652L11.8376 74.6656L56.7282 60.5036L69.3148 15.1464L96.656 53.4631Z" fill="url(#paint0_linear_10_68)"/>
<path d="M69.3148 15.1461L96.6556 53.4631L143.682 51.4176L115.69 89.2608L132.167 133.354L87.5257 118.425L50.6825 147.722L51.0856 100.652L11.8378 74.6654L56.7282 60.5034L69.3148 15.1461Z" fill="url(#paint1_linear_10_68)"/>
<defs>
<linearGradient id="paint0_linear_10_68" x1="87.5879" y1="15.1464" x2="87.5879" y2="159.695" gradientUnits="userSpaceOnUse">
<stop stop-color="#FFDF20"/>
<stop offset="1" stop-color="#D08700"/>
</linearGradient>
<linearGradient id="paint1_linear_10_68" x1="69.3148" y1="15.1461" x2="93.759" y2="153.776" gradientUnits="userSpaceOnUse">
<stop stop-color="#FFF085"/>
<stop offset="1" stop-color="#FFDF20"/>
</linearGradient>
</defs>
</svg>
