<svg width="445" height="166" viewBox="0 0 445 166" fill="none" xmlns="http://www.w3.org/2000/svg">
<path d="M96.656 53.4631L143.683 51.4176L163.338 87.4667L142.344 115.849L154.702 148.919L121.221 137.723L93.5884 159.695L50.683 147.722L51.0857 100.652L11.8376 74.6656L56.7282 60.5036L69.3148 15.1464L96.656 53.4631Z" fill="url(#paint0_linear_10_51)"/>
<path d="M242.577 42.4827L289.244 48.6345L272.51 85.3793L258.39 98.7818L263.676 127.326L253.333 144.398L222.305 127.558L191.277 144.398L180.935 127.326L186.22 98.7818L172.101 85.3793L155.366 48.6345L202.033 42.4827L222.305 0L242.577 42.4827Z" fill="url(#paint1_linear_10_51)"/>
<path d="M387.883 60.5036L432.772 74.6656L393.525 100.652L393.928 147.722L351.022 159.695L323.39 137.723L289.909 148.919L302.267 115.849L281.273 87.4667L300.928 51.4176L347.955 53.4631L375.296 15.1464L387.883 60.5036Z" fill="url(#paint2_linear_10_51)"/>
<path d="M69.3148 15.1461L96.6556 53.4631L143.682 51.4176L115.69 89.2608L132.167 133.354L87.5257 118.425L50.6825 147.722L51.0856 100.652L11.8378 74.6654L56.7282 60.5034L69.3148 15.1461Z" fill="url(#paint3_linear_10_51)"/>
<path d="M222.305 0L242.577 42.4826L289.244 48.6342L255.105 81.0416L263.676 127.326L222.305 104.872L180.934 127.326L189.505 81.0416L155.366 48.6342L202.033 42.4826L222.305 0Z" fill="url(#paint4_linear_10_51)"/>
<path d="M375.296 15.1461L387.882 60.5035L432.773 74.6654L393.525 100.652L393.928 147.722L357.085 118.425L312.443 133.354L328.921 89.2608L300.928 51.4176L347.955 53.4632L375.296 15.1461Z" fill="url(#paint5_linear_10_51)"/>
<defs>
<linearGradient id="paint0_linear_10_51" x1="87.5879" y1="15.1464" x2="87.5879" y2="159.695" gradientUnits="userSpaceOnUse">
<stop stop-color="#FFDF20"/>
<stop offset="1" stop-color="#D08700"/>
</linearGradient>
<linearGradient id="paint1_linear_10_51" x1="222.305" y1="0" x2="222.305" y2="144.398" gradientUnits="userSpaceOnUse">
<stop stop-color="#FFDF20"/>
<stop offset="1" stop-color="#D08700"/>
</linearGradient>
<linearGradient id="paint2_linear_10_51" x1="357.022" y1="15.1464" x2="357.022" y2="159.695" gradientUnits="userSpaceOnUse">
<stop stop-color="#FFDF20"/>
<stop offset="1" stop-color="#D08700"/>
</linearGradient>
<linearGradient id="paint3_linear_10_51" x1="69.3148" y1="15.1461" x2="93.759" y2="153.776" gradientUnits="userSpaceOnUse">
<stop stop-color="#FFF085"/>
<stop offset="1" stop-color="#FFDF20"/>
</linearGradient>
<linearGradient id="paint4_linear_10_51" x1="222.305" y1="0" x2="222.305" y2="140.768" gradientUnits="userSpaceOnUse">
<stop stop-color="#FFF085"/>
<stop offset="1" stop-color="#FFDF20"/>
</linearGradient>
<linearGradient id="paint5_linear_10_51" x1="375.296" y1="15.1461" x2="350.851" y2="153.776" gradientUnits="userSpaceOnUse">
<stop stop-color="#FFF085"/>
<stop offset="1" stop-color="#FFDF20"/>
</linearGradient>
</defs>
</svg>
