<svg width="445" height="166" viewBox="0 0 445 166" fill="none" xmlns="http://www.w3.org/2000/svg">
<path d="M125.766 90.6436L126.658 91.8935L128.191 91.8265L157.539 90.5487L140.07 114.167L139.157 115.401L139.694 116.839L149.976 144.356L122.118 135.04L120.662 134.553L119.46 135.509L96.4669 153.791L96.7185 124.417L96.7315 122.882L95.4515 122.034L70.9574 105.815L98.9735 96.9783L100.437 96.5169L100.848 95.0374L108.703 66.7297L125.766 90.6436Z" stroke="#45556C" stroke-width="5.65659"/>
<path d="M234.956 81.9835L235.618 83.3693L237.139 83.5695L266.263 87.4073L244.958 107.633L243.845 108.691L244.124 110.199L249.472 139.084L223.655 125.072L222.305 124.34L220.955 125.072L195.137 139.084L200.486 110.199L200.765 108.691L199.652 107.633L178.346 87.4073L207.471 83.5695L208.993 83.3693L209.654 81.9835L222.305 55.4698L234.956 81.9835Z" stroke="#45556C" stroke-width="5.65659"/>
<path d="M343.763 95.0374L344.173 96.5169L345.637 96.9783L373.652 105.815L349.159 122.034L347.879 122.882L347.892 124.417L348.142 153.791L325.15 135.509L323.948 134.553L322.492 135.04L294.633 144.356L304.916 116.839L305.453 115.401L304.54 114.167L287.071 90.5485L316.42 91.8265L317.953 91.8935L318.844 90.6436L335.908 66.7296L343.763 95.0374Z" stroke="#45556C" stroke-width="5.65659"/>
</svg>
